<svg xmlns="http://www.w3.org/2000/svg" viewBox="0 0 1000 160" font-family="Arial, Helvetica, sans-serif">
  <defs>
    <marker id="a5" markerWidth="9" markerHeight="9" refX="7" refY="3" orient="auto" markerUnits="strokeWidth"><path d="M0,0 L8,3 L0,6 Z" fill="#475569"/></marker>
    <filter id="s5" x="-30%" y="-30%" width="160%" height="160%"><feDropShadow dx="0" dy="1.5" stdDeviation="2" flood-color="#0f172a" flood-opacity="0.12"/></filter>
  </defs>
  <rect x="0" y="0" width="1000" height="160" fill="#f8fafc" rx="8"/>

  <rect x="24" y="56" width="150" height="56" rx="8" fill="#dbeafe" stroke="#2563eb" stroke-width="1.5" filter="url(#s5)"/>
  <text x="99" y="89" text-anchor="middle" font-size="14" font-weight="700" fill="#1e3a8a">Client</text>

  <rect x="254" y="56" width="190" height="56" rx="8" fill="#ede9fe" stroke="#7c3aed" stroke-width="1.5" filter="url(#s5)"/>
  <text x="349" y="89" text-anchor="middle" font-size="14" font-weight="700" fill="#5b21b6">Target Interface</text>

  <rect x="554" y="56" width="150" height="56" rx="8" fill="#dcfce7" stroke="#16a34a" stroke-width="1.5" filter="url(#s5)"/>
  <text x="629" y="89" text-anchor="middle" font-size="14" font-weight="700" fill="#166534">Adapter</text>

  <rect x="800" y="56" width="160" height="56" rx="8" fill="#fef3c7" stroke="#d97706" stroke-width="1.5" filter="url(#s5)"/>
  <text x="880" y="89" text-anchor="middle" font-size="14" font-weight="700" fill="#92400e">Adaptee</text>

  <path d="M174,84 L250,84" stroke="#475569" stroke-width="2" fill="none" marker-end="url(#a5)"/>
  <text x="212" y="75" text-anchor="middle" font-size="11" fill="#475569">uses</text>

  <path d="M554,84 L448,84" stroke="#475569" stroke-width="2" fill="none" marker-end="url(#a5)"/>
  <text x="501" y="75" text-anchor="middle" font-size="11" fill="#475569">implements</text>

  <path d="M704,84 L796,84" stroke="#475569" stroke-width="2" fill="none" marker-end="url(#a5)"/>
  <text x="750" y="75" text-anchor="middle" font-size="11" fill="#475569">delegates</text>
</svg>
